<svg xmlns="http://www.w3.org/2000/svg" viewBox="0 0 1740.83 1289.54"><defs><style>.cls-1{fill:#da291c;}.cls-2{fill:#fff;}.cls-3{fill:#0c1a22;}.cls-4{font-size:126px;font-family:BellMTBold, Bell MT;letter-spacing:-0.02em;}.cls-5{font-size:108px;letter-spacing:-0.02em;}.cls-6{letter-spacing:-0.06em;}.cls-7{font-size:72px;font-family:TwCenMT-Bold, Tw Cen MT;font-weight:700;letter-spacing:0.05em;}.cls-8{letter-spacing:0.03em;}</style></defs><title>logoFull</title><g id="logos"><path class="cls-1" d="M1566.24,576c-38.42-68.75-106.85-40.24-106.85-40.24S424,1087.55,306.24,1149.55s-136.4-37.2-136.4-37.2V695.13a2.53,2.53,0,0,1,4.75-1.21c38.42,68.75,106.85,40.24,106.85,40.24S1316.8,182.38,1434.6,120.38,1571,157.58,1571,157.58V574.8A2.53,2.53,0,0,1,1566.24,576Z"/><path class="cls-2" d="M1225.83,517.82q-2.25-8.21-18.63-38.73-5.52-10.27-12.34-36.54a193.53,193.53,0,0,1-40.42,29.79,313.76,313.76,0,0,1-2.71,34.79c-1.12,8-7,53-13.06,73.67q-10.41,36.35-20.7,41.87-5.65,3-9-3.28-3.21-6-1.18-29.28t-1.35-29.62q-9.09-16.93-35.3-2.87-9,4.82-22.4,18,15.87-28.57,27.93-42.75,9.11-10.87,14.1-13.54,8.63-4.64,16.62,3.9a3.05,3.05,0,0,0,1.84-.56q4.63-2.49,5.6-10.27t-1.71-12.76q-4.63-8.62-15.92-2.58-17.25,9.27-42.77,59.69-13.64,24-21.21,36.17l16.11-155.65q1.18-11.31-1.66-16.64a21.24,21.24,0,0,0-2.46-3.8l-41.49,22.25a26.59,26.59,0,0,1,3.13,15.42L989.36,626.72a13.88,13.88,0,0,0-2.33,4.39c-1.28,6.65-3,11.48-3.73,15q-5.29,26.79-27.38,55.72c-4.55,5.84-8.49,9.67-11.8,11.45q-12,6.4-19.07-6.87-9.25-17.25-2-59.84T947,595.07q9-4.82,15,6.47c1.07,2,1.82,2.88,2.27,2.64q2.6-3.1,5-9.75c1.61-4.42,2-7.52,1-9.3-3-5.53-8.76-5.25-19.7-1.35a80,80,0,0,0-22.45,12,149.62,149.62,0,0,0-17.72,15.92,141.67,141.67,0,0,0-19.67,25.93q-10.77,18.18-14,41.68c-.47,3.5-.64,6.78-.77,10a328.11,328.11,0,0,1-8.07,34q-9.79,34.33-20.76,40.19-7,3.74-10.88-3.56c-1.66-3.09-2.12-7.13-1.36-12.09q3.9-28.57,9.12-81.81,1.82-18.92-.5-23.23l-2.49-4.66-40.49,21.72c.94,1.78,1.66,3.11,2.13,4q2.87,5.31,1.27,19.82Q798.91,733,797.31,742a192.88,192.88,0,0,1-18.88,53.72q-4.45,8.37-10.08,11.39-6.6,3.54-9.82-2.43t-.22-28.94q5.24-47.25,7.52-70.71,1.41-14-2.15-20.63l-1.95-3.66-41.82,22.43a18.19,18.19,0,0,1,3.13,3.46q2.31,4.32,1,17l-6.82,67.76q-2.36,23.49,2.45,32.45,5.16,9.63,15.22,10.85a33.07,33.07,0,0,0,20-4.1q26.24-14.07,41.21-67.41,1.26,14.31,4.28,19.94,5,9.3,15.8,10.32,8.94.76,18.9-4.58,16.93-9.08,26.12-29.39c6.47-14.48,11.85-31.75,16.17-51.67a52.31,52.31,0,0,0,4.83,14.34q15.31,28.54,47.83,11.1,27.56-14.78,42-38.78,4.5-7.53,9-20.64c1.92-5.43,3.57-10.44,5.06-15.25l-4.79,47.23,41-22,5.39-55.88a93.74,93.74,0,0,1,8-29.53q8.09-16.71,19.67-22.94c5.06-2.72,8.68-2.08,10.81,1.9q4.64,8.64,1.21,30.55t.5,29.22q5.52,10.29,17.84,10.94a37.11,37.11,0,0,0,21.43-4.66q23.24-12.45,36.73-61.8c9-32.88,12.22-67.55,13.55-77.12q1.62-13.69,3.25-27.39,6.35,9.42,11.86,19.71,14.41,26.9,14.61,63.1.29,33.2-15,41.37a9.16,9.16,0,0,1-7.49.39,10,10,0,0,1-6-4.72,16.51,16.51,0,0,1-1.6-6.18,16.91,16.91,0,0,0-.9-4.87c-.83-1.54-1.8-2-2.91-1.43-3.09,1.66-5.41,4.77-7,9.3s-1.44,8.46.34,11.78q6.76,12.63,33-1.45,31.53-16.9,42.74-43Q1231.84,539.39,1225.83,517.82Z"/><path class="cls-2" d="M803.55,519.09q.38.69-4.77,10.42-14.6,22.71-47.47,40.57Q734.87,579,702.08,589q-47.69,14.63-67.47,25.37C600.4,633,581.24,664.92,574.7,687c-5.77,19.44,20.42,33.34,29.17,49.44,6,11-24.89,35-47.15,27.1-21.8-9-19.17-33.51-8-64.18q13.57-37.37,45.44-69.89A241,241,0,0,1,651.75,586a276.16,276.16,0,0,1,53.72-22.67q57.66-17,71.42-24.49,12.75-6.93,18.64-14.47,4.1-5.26,5.43-6A1.69,1.69,0,0,1,803.55,519.09Zm-98.75,89a3.34,3.34,0,0,1-.23,3.6,77.73,77.73,0,0,0-9.69,30.21q-2.55,19.56-.66,47.26t1.86,57.24q0,54.34-18,90.11-11.9,24-36.91,47.33c-15.88,14.88-22.35,21.72-39.74,30.72q-19.76,10.23-38.71,12.21-25.39,2.7-34.59-13.39a24.07,24.07,0,0,1-2.88-17.84q2.1-9.14,10.91-13.68a22.41,22.41,0,0,1,13.8-2.23q7.46,1.05,10.84,7,2.82,4.94-1.76,7.31l-1.77.91q-7.75,4-3.73,11.06,5.35,9.39,21.12,8.19A55.89,55.89,0,0,0,598,907.71c18.8-9.72,21.75-16.63,29.13-30.88q13.13-25,17.32-63.26,2.39-19,3.39-66.05,1.32-53.67,19.84-93.24a133.83,133.83,0,0,1,33.23-45,6.85,6.85,0,0,1,2.44-2.13C703.8,606.92,704.29,607.25,704.8,608.13Z"/><rect class="cls-1" width="1740.83" height="40"/><rect class="cls-1" y="1249.54" width="1740.83" height="40"/><path class="cls-3" d="M402.49,268.22c0-3.49,7.29-6.94,7-10.36a120.24,120.24,0,0,0-49.81-87.49c-2.93-2.11-10.6,3.39-13.72,1.55s-2-11.17-5.42-12.78a120.73,120.73,0,0,0-100-.89c-3.44,1.54-1.51,10.81-4.76,12.65s-11.59-3.83-14.6-1.75A120.33,120.33,0,0,0,169.87,255c-.47,4.34,9.72,8.76,9.72,13.22s-10.2,8.79-9.73,13.09a120.25,120.25,0,0,0,50.26,85.28c3.21,2.27,13-4.66,16.43-2.71s.66,12.87,4.37,14.51a120.69,120.69,0,0,0,99.68-1.12c3.58-1.67,2.38-11.18,5.76-13.18,3-1.78,10.55,4,13.36,2a120.31,120.31,0,0,0,49.82-88.11C409.79,274.74,402.49,271.5,402.49,268.22ZM289.69,370.74A102.52,102.52,0,1,1,392.21,268.22,102.52,102.52,0,0,1,289.69,370.74Z"/><path class="cls-3" d="M290.32,364.74a96.52,96.52,0,1,1,96.51-96.52A96.62,96.62,0,0,1,290.32,364.74Zm0-186.14a89.63,89.63,0,1,0,89.62,89.62A89.73,89.73,0,0,0,290.32,178.6Z"/><path class="cls-3" d="M338.45,215.59H240.94a1.58,1.58,0,0,0-1.39,1.72v18.33c0,.42.44.59.63.24a7.15,7.15,0,0,1,3.64-3.08,1.11,1.11,0,0,1,.36-.08c1.63-.09,21.22-.81,26.49-.81,4.78,0,8.24,6.46,9.17,8.38a2,2,0,0,1,.2.88v66.94c0,.21-.43,2.18-.49,2.36-.45,1.55-5.09,7.24-7.34,9.64-.24.26-.09.75.23.75H307c.32,0,.47-.49.23-.75-2.26-2.4-7-8.14-7.46-9.69-.05-.19-.37-2.1-.37-2.31V241.18a2,2,0,0,1,.19-.88c.94-1.92,4.4-8.39,9.18-8.39,5.26,0,24.86.72,26.49.81a1.17,1.17,0,0,1,.36.08,7.19,7.19,0,0,1,3.64,3.08c.19.35.63.18.63-.24V217.31A1.58,1.58,0,0,0,338.45,215.59Z"/><path class="cls-1" d="M243.79,290.57v19L272.86,293V274Z"/><path class="cls-1" d="M335.72,238.09l-29.06,16.59v19l29.06-16.59Z"/><rect class="cls-3" x="226.73" y="380.34" width="125.62" height="6"/><rect class="cls-3" x="226.73" y="393.81" width="125.62" height="6"/><rect class="cls-3" x="226.73" y="407.27" width="125.62" height="6"/><rect class="cls-3" x="226.73" y="59.08" width="125.62" height="6"/><rect class="cls-3" x="226.73" y="72.55" width="125.62" height="6"/><rect class="cls-3" x="226.73" y="86.02" width="125.62" height="6"/><rect class="cls-3" x="226.73" y="99.48" width="125.62" height="6"/><rect class="cls-3" x="226.73" y="112.95" width="125.62" height="6"/><rect class="cls-3" x="226.73" y="126.41" width="125.62" height="6"/><rect class="cls-3" x="226.73" y="139.88" width="125.62" height="6"/><rect class="cls-3" x="226.73" y="153.35" width="125.62" height="6"/><text class="cls-4" transform="translate(750.09 1028.28)">C<tspan class="cls-5" x="80.96" y="0">OOLING </tspan><tspan class="cls-6" x="537" y="0">B</tspan><tspan class="cls-5" x="608.98" y="0">EER</tspan></text><text class="cls-7" transform="translate(926.03 1109.94)">WITH WI<tspan class="cls-8" x="275" y="0">T</tspan><tspan x="311.5" y="0">CH HAZEL</tspan></text></g></svg>