<svg xmlns="http://www.w3.org/2000/svg" viewBox="0 0 601.66 529.98"><defs><style>.cls-1{fill:#da291c;}</style></defs><title>LogoWhite</title><g id="variations"><g id="red_outline" data-name="red outline"><g id="red_outline-2" data-name="red outline"><path class="cls-1" d="M51.64,476.27a30.85,30.85,0,0,1-13.6-3c-13.93-6.73-17-22.32-17.12-23l-.07-.37V285.23a5,5,0,0,1,9.37-2.43C43,305.74,64.86,297.86,67.12,297c10.58-5.64,408.6-217.75,454.1-241.7,17.11-9,31.37-10.86,42.4-5.53,13.93,6.74,17,22.33,17.12,23l.07.37V237.82a5,5,0,0,1-9.36,2.43c-12.74-22.8-34.65-15.05-36.92-14.17-10.86,5.79-408.6,217.75-454.08,241.69C69.69,473.44,60.05,476.27,51.64,476.27ZM28.85,449.15c.46,1.93,3.37,12.49,12.74,17,8.61,4.13,20.43,2.3,35.13-5.44C122.58,436.55,526.89,221.09,531,218.92l.34-.17c.27-.11,24.47-9.85,41.5,9.56V73.9c-.46-1.93-3.36-12.49-12.73-17-8.62-4.13-20.44-2.3-35.14,5.43C479.08,86.49,74.77,302,70.7,304.13l-.35.16c-.27.12-24.46,9.86-41.5-9.55ZM578.42,236.34h0Z"/><path class="cls-1" d="M440.84,215.38q-.88-3.24-7.34-15.26-2.17-4.05-4.86-14.4a76,76,0,0,1-15.92,11.74,123,123,0,0,1-1.07,13.71c-.44,3.15-2.76,20.89-5.14,29q-4.11,14.32-8.16,16.5c-1.48.8-2.67.37-3.55-1.29s-1-5.41-.47-11.54.36-10-.53-11.67q-3.58-6.66-13.91-1.12a42.6,42.6,0,0,0-8.82,7.09q6.26-11.27,11-16.84,3.6-4.29,5.56-5.34,3.39-1.82,6.55,1.54a1.23,1.23,0,0,0,.72-.22c1.22-.66,2-2,2.21-4a8.35,8.35,0,0,0-.68-5q-1.81-3.41-6.27-1-6.8,3.65-16.85,23.51Q367.94,240.16,365,245l6.34-61.32c.32-3,.1-5.15-.65-6.55a8,8,0,0,0-1-1.49l-16.34,8.76a10.49,10.49,0,0,1,1.23,6.07l-6.88,67.84a5.65,5.65,0,0,0-.92,1.73c-.51,2.63-1.2,4.53-1.47,5.9q-2.08,10.56-10.79,22a16.85,16.85,0,0,1-4.65,4.51q-4.69,2.52-7.51-2.71-3.64-6.8-.77-23.57T331,245.81c2.35-1.27,4.33-.41,5.91,2.55.42.78.72,1.13.9,1a13.38,13.38,0,0,0,2-3.85q.95-2.61.39-3.66c-1.17-2.18-3.45-2.07-7.76-.53a31.77,31.77,0,0,0-8.85,4.72,60,60,0,0,0-7,6.27,56.25,56.25,0,0,0-7.75,10.22,43.38,43.38,0,0,0-5.5,16.42c-.18,1.38-.25,2.67-.3,3.95a130.62,130.62,0,0,1-3.18,13.4q-3.86,13.53-8.18,15.83-2.75,1.49-4.29-1.4a7.59,7.59,0,0,1-.53-4.76q1.53-11.26,3.59-32.23.72-7.45-.2-9.15l-1-1.84-15.95,8.56c.37.7.66,1.22.84,1.57q1.13,2.1.5,7.81-2,19.42-2.62,23a76,76,0,0,1-7.44,21.16,10.39,10.39,0,0,1-4,4.48c-1.74.93-3,.62-3.87-1s-.87-5.36-.09-11.4q2.06-18.6,3-27.85.56-5.5-.84-8.13l-.77-1.44-16.48,8.84a7.38,7.38,0,0,1,1.24,1.36c.6,1.13.74,3.36.39,6.69l-2.69,26.69q-.93,9.25,1,12.79a7.6,7.6,0,0,0,6,4.27,13,13,0,0,0,7.88-1.62Q265.65,333,271.56,312c.33,3.76.89,6.37,1.68,7.85a7.43,7.43,0,0,0,6.23,4.07,13.32,13.32,0,0,0,7.44-1.8,23.62,23.62,0,0,0,10.29-11.58,104.47,104.47,0,0,0,6.37-20.36,20.65,20.65,0,0,0,1.9,5.65q6,11.25,18.85,4.38A41.94,41.94,0,0,0,340.87,285a44.44,44.44,0,0,0,3.55-8.13c.76-2.14,1.41-4.12,2-6l-1.89,18.61,16.16-8.67,2.13-22A36.77,36.77,0,0,1,366,247.1q3.18-6.58,7.74-9,3-1.6,4.26.75,1.83,3.41.48,12t.2,11.51a7.92,7.92,0,0,0,7,4.31,14.64,14.64,0,0,0,8.45-1.84q9.15-4.9,14.47-24.34c3.54-13,4.81-26.61,5.33-30.38q.65-5.4,1.28-10.79a86.67,86.67,0,0,1,4.67,7.76q5.69,10.59,5.76,24.86.12,13.06-5.91,16.29a3.59,3.59,0,0,1-2.94.16,4,4,0,0,1-2.35-1.86,6.7,6.7,0,0,1-.63-2.44,6.54,6.54,0,0,0-.36-1.91q-.48-.92-1.14-.57a6.23,6.23,0,0,0-2.75,3.66,5.68,5.68,0,0,0,.13,4.65q2.67,5,13-.57,12.42-6.67,16.84-16.95A25,25,0,0,0,440.84,215.38Z"/><path class="cls-1" d="M274.49,215.88c.1.18-.53,1.54-1.88,4.1q-5.75,9-18.7,16-6.48,3.51-19.39,7.45-18.78,5.76-26.58,10A50.46,50.46,0,0,0,184.34,282c-2.27,7.66,8,13.13,11.49,19.48,2.35,4.31-9.81,13.78-18.57,10.67-8.59-3.53-7.55-13.2-3.17-25.28q5.35-14.73,17.9-27.53a95,95,0,0,1,22.7-17.13,108.21,108.21,0,0,1,21.16-8.93q22.72-6.71,28.14-9.65a23.22,23.22,0,0,0,7.34-5.7,11.78,11.78,0,0,1,2.14-2.36A.66.66,0,0,1,274.49,215.88ZM235.6,251a1.36,1.36,0,0,1-.09,1.42,31.87,31.87,0,0,0-3.63,11.9,102,102,0,0,0-.24,18.62q.71,10.91.71,22.55,0,21.4-6.73,35.49a66.08,66.08,0,0,1-13.83,18.64,83.61,83.61,0,0,1-18.7,14.1,39.44,39.44,0,0,1-14.51,4.81q-9.51,1-13-5.28a9.83,9.83,0,0,1-1.08-7,7.77,7.77,0,0,1,4.08-5.39,8.08,8.08,0,0,1,5.18-.88,5.26,5.26,0,0,1,4.06,2.75q1,2-.66,2.88l-.66.36q-2.91,1.59-1.4,4.36,2,3.69,7.92,3.23a20.26,20.26,0,0,0,8.73-2.52q10.56-5.74,14.72-14.17,4.92-9.85,6.48-24.92.9-7.49,1.27-26,.48-21.15,7.42-36.73a52.79,52.79,0,0,1,12.45-17.72,2.62,2.62,0,0,1,.92-.84C235.22,250.47,235.41,250.61,235.6,251Z"/></g></g></g></svg>