<svg xmlns="http://www.w3.org/2000/svg" viewBox="0 0 601.66 529.98"><defs><style>.cls-1{fill:#da291c;}.cls-2{fill:#fff;}</style></defs><title>logoRed</title><g id="variations"><g id="Black_Logo" data-name="Black Logo"><path class="cls-1" d="M574.94,241.76c-15.14-27.08-42.09-15.85-42.09-15.85S125,443.28,78.58,467.7,24.85,453,24.85,453V288.69a1,1,0,0,1,1.88-.48c15.13,27.09,42.08,15.86,42.08,15.86S476.68,86.7,523.08,62.28s53.73,14.65,53.73,14.65V241.29A1,1,0,0,1,574.94,241.76Z"/><path class="cls-2" d="M440.84,218.84q-.88-3.22-7.34-15.26-2.17-4.05-4.86-14.39a76.38,76.38,0,0,1-15.92,11.74,122.86,122.86,0,0,1-1.07,13.7c-.44,3.16-2.76,20.9-5.14,29q-4.11,14.32-8.16,16.5c-1.48.79-2.67.36-3.55-1.3s-1-5.41-.47-11.53.36-10-.53-11.67q-3.58-6.68-13.91-1.13a42.94,42.94,0,0,0-8.82,7.09q6.26-11.25,11-16.84,3.6-4.28,5.56-5.33,3.39-1.83,6.55,1.53a1.15,1.15,0,0,0,.72-.22c1.22-.65,2-2,2.21-4a8.38,8.38,0,0,0-.68-5q-1.81-3.41-6.27-1-6.8,3.65-16.85,23.51-5.37,9.45-8.35,14.24l6.34-61.31c.32-3,.1-5.16-.65-6.55a8.13,8.13,0,0,0-1-1.5l-16.34,8.77a10.47,10.47,0,0,1,1.23,6.07l-6.88,67.84a5.44,5.44,0,0,0-.92,1.73c-.51,2.62-1.2,4.52-1.47,5.9q-2.08,10.56-10.79,21.95a16.85,16.85,0,0,1-4.65,4.51q-4.69,2.52-7.51-2.71-3.64-6.8-.77-23.57T331,249.27c2.35-1.26,4.33-.41,5.91,2.55.42.79.72,1.13.9,1a13.16,13.16,0,0,0,2-3.84q.95-2.61.39-3.66c-1.17-2.18-3.45-2.07-7.76-.54a31.65,31.65,0,0,0-8.85,4.73,59,59,0,0,0-7,6.27A55.91,55.91,0,0,0,308.83,266a43.39,43.39,0,0,0-5.5,16.41c-.18,1.38-.25,2.68-.3,4a131.24,131.24,0,0,1-3.18,13.4q-3.86,13.51-8.18,15.83-2.75,1.47-4.29-1.4a7.61,7.61,0,0,1-.53-4.77q1.53-11.25,3.59-32.23.72-7.44-.2-9.15l-1-1.83-15.95,8.55c.37.7.66,1.23.84,1.58q1.13,2.08.5,7.81-2,19.43-2.62,22.95a75.93,75.93,0,0,1-7.44,21.16,10.42,10.42,0,0,1-4,4.49q-2.61,1.4-3.87-1t-.09-11.4q2.06-18.62,3-27.85.56-5.52-.84-8.13L258,283l-16.48,8.83a7.33,7.33,0,0,1,1.24,1.37c.6,1.13.74,3.36.39,6.68l-2.69,26.7q-.93,9.25,1,12.78a7.62,7.62,0,0,0,6,4.28,13.07,13.07,0,0,0,7.88-1.62q10.33-5.54,16.24-26.55.49,5.63,1.68,7.85a7.47,7.47,0,0,0,6.23,4.07,13.34,13.34,0,0,0,7.44-1.81A23.53,23.53,0,0,0,297.2,314a104.36,104.36,0,0,0,6.37-20.35,20.77,20.77,0,0,0,1.9,5.65q6,11.25,18.85,4.37a41.87,41.87,0,0,0,16.55-15.28,44.13,44.13,0,0,0,3.55-8.13c.76-2.13,1.41-4.11,2-6l-1.89,18.61,16.16-8.67,2.13-22A36.7,36.7,0,0,1,366,250.57q3.18-6.58,7.74-9,3-1.6,4.26.75c1.22,2.26,1.38,6.28.48,12s-.83,9.59.2,11.51a7.9,7.9,0,0,0,7,4.31,14.71,14.71,0,0,0,8.45-1.83q9.15-4.91,14.47-24.35c3.54-12.95,4.81-26.61,5.33-30.38q.65-5.4,1.28-10.79a88.29,88.29,0,0,1,4.67,7.77q5.69,10.59,5.76,24.85.12,13.08-5.91,16.3a3.55,3.55,0,0,1-2.94.15,4,4,0,0,1-2.35-1.86,6.64,6.64,0,0,1-.63-2.43,6.56,6.56,0,0,0-.36-1.92c-.32-.61-.7-.8-1.14-.56a6.17,6.17,0,0,0-2.75,3.66,5.65,5.65,0,0,0,.13,4.64q2.67,5,13-.57,12.42-6.66,16.84-16.94A25,25,0,0,0,440.84,218.84Z"/><path class="cls-2" d="M274.49,219.34q.15.27-1.88,4.11-5.75,8.94-18.7,16-6.48,3.52-19.39,7.46-18.78,5.76-26.58,10a50.51,50.51,0,0,0-23.6,28.6c-2.27,7.65,8,13.13,11.49,19.47,2.35,4.32-9.81,13.78-18.57,10.68-8.59-3.53-7.55-13.2-3.17-25.29q5.35-14.71,17.9-27.53a95.31,95.31,0,0,1,22.7-17.13,109.45,109.45,0,0,1,21.16-8.93q22.72-6.69,28.14-9.64a23.37,23.37,0,0,0,7.34-5.7,11.47,11.47,0,0,1,2.14-2.36A.67.67,0,0,1,274.49,219.34ZM235.6,254.42a1.34,1.34,0,0,1-.09,1.41,31.87,31.87,0,0,0-3.63,11.91,101.87,101.87,0,0,0-.24,18.61q.71,10.92.71,22.55,0,21.41-6.73,35.5A66.22,66.22,0,0,1,211.79,363a83.91,83.91,0,0,1-18.7,14.1,39.41,39.41,0,0,1-14.51,4.8q-9.51,1.06-13-5.28a9.82,9.82,0,0,1-1.08-7,7.79,7.79,0,0,1,4.08-5.39,8.07,8.07,0,0,1,5.18-.87,5.21,5.21,0,0,1,4.06,2.75q1,2-.66,2.88l-.66.36q-2.91,1.58-1.4,4.35,2,3.71,7.92,3.23a20.26,20.26,0,0,0,8.73-2.52q10.56-5.75,14.72-14.16,4.92-9.86,6.48-24.92.9-7.5,1.27-26,.48-21.13,7.42-36.73a52.79,52.79,0,0,1,12.45-17.72,2.68,2.68,0,0,1,.92-.83C235.22,253.94,235.41,254.07,235.6,254.42Z"/></g></g></svg>