<svg xmlns="http://www.w3.org/2000/svg" viewBox="0 0 551.96 421.48"><defs><style>.cls-1{fill:#da291c;}.cls-2{fill:#fff;}</style></defs><title>logoRed</title><g id="variations"><g id="Black_Logo" data-name="Black Logo"><path class="cls-1" d="M550.08,187.52C535,160.43,508,171.66,508,171.66S100.13,389,53.73,413.45,0,398.8,0,398.8V234.44A1,1,0,0,1,1.87,234C17,261.05,44,249.82,44,249.82S451.82,32.45,498.23,8,552,22.68,552,22.68V187A1,1,0,0,1,550.08,187.52Z"/><path class="cls-2" d="M416,164.59q-.9-3.22-7.34-15.26-2.17-4.05-4.86-14.39a76.44,76.44,0,0,1-15.93,11.74,122.66,122.66,0,0,1-1.06,13.7c-.44,3.16-2.77,20.9-5.15,29q-4.09,14.32-8.15,16.5c-1.49.79-2.67.36-3.56-1.3s-1-5.41-.46-11.53.36-10-.53-11.67q-3.58-6.66-13.91-1.13a43.29,43.29,0,0,0-8.82,7.09q6.24-11.25,11-16.84c2.39-2.85,4.25-4.63,5.55-5.33q3.41-1.83,6.55,1.53a1.18,1.18,0,0,0,.73-.22c1.21-.65,1.95-2,2.2-4a8.33,8.33,0,0,0-.67-5q-1.83-3.39-6.27-1-6.8,3.65-16.85,23.51-5.37,9.45-8.35,14.24l6.34-61.31c.31-3,.1-5.16-.65-6.55a8.7,8.7,0,0,0-1-1.5l-16.35,8.77a10.48,10.48,0,0,1,1.24,6.07l-6.89,67.84a5.49,5.49,0,0,0-.91,1.73c-.51,2.62-1.2,4.52-1.47,5.9q-2.08,10.56-10.79,21.95a16.85,16.85,0,0,1-4.65,4.51c-3.14,1.69-5.64.78-7.51-2.7q-3.64-6.8-.77-23.58t9.4-20.28q3.54-1.89,5.92,2.55c.42.79.72,1.14.89,1a12.92,12.92,0,0,0,2-3.84q1-2.61.39-3.66c-1.16-2.18-3.45-2.07-7.76-.53a31.33,31.33,0,0,0-8.84,4.72,58.21,58.21,0,0,0-7,6.27A55.8,55.8,0,0,0,284,211.79a43.22,43.22,0,0,0-5.5,16.41c-.19,1.38-.26,2.68-.31,4a125.58,125.58,0,0,1-3.18,13.4q-3.86,13.51-8.17,15.83c-1.83,1-3.26.52-4.29-1.4a7.67,7.67,0,0,1-.54-4.77q1.54-11.25,3.6-32.23c.47-5,.41-8-.2-9.15l-1-1.83-16,8.56.84,1.57c.75,1.39.91,4,.5,7.81q-2,19.43-2.62,23a75.93,75.93,0,0,1-7.44,21.16,10.43,10.43,0,0,1-4,4.49q-2.6,1.4-3.87-1t-.08-11.4q2.06-18.62,3-27.85.56-5.52-.85-8.13l-.77-1.44-16.47,8.83a7.14,7.14,0,0,1,1.23,1.37q.92,1.69.39,6.69l-2.68,26.69q-.93,9.25,1,12.78a7.62,7.62,0,0,0,6,4.28,13.07,13.07,0,0,0,7.88-1.62q10.34-5.54,16.23-26.55.5,5.63,1.69,7.85a7.44,7.44,0,0,0,6.22,4.07,13.37,13.37,0,0,0,7.45-1.81,23.63,23.63,0,0,0,10.29-11.58,104.14,104.14,0,0,0,6.37-20.35,20.77,20.77,0,0,0,1.9,5.65q6,11.25,18.84,4.37A41.9,41.9,0,0,0,316,234.16a44.82,44.82,0,0,0,3.55-8.13c.75-2.13,1.4-4.11,2-6l-1.89,18.61L335.84,230,338,208a36.76,36.76,0,0,1,3.16-11.63q3.18-6.58,7.75-9,3-1.6,4.26.75c1.21,2.26,1.37,6.28.48,12s-.84,9.59.19,11.51a7.91,7.91,0,0,0,7,4.31,14.68,14.68,0,0,0,8.44-1.83q9.15-4.91,14.47-24.35c3.55-12.95,4.81-26.61,5.34-30.38q.65-5.4,1.28-10.79,2.5,3.72,4.67,7.77,5.68,10.59,5.76,24.85.1,13.08-5.91,16.3a3.57,3.57,0,0,1-2.95.15,3.9,3.9,0,0,1-2.34-1.86,6.27,6.27,0,0,1-.63-2.43,6.56,6.56,0,0,0-.36-1.92c-.32-.61-.71-.8-1.14-.56a6.16,6.16,0,0,0-2.75,3.66,5.65,5.65,0,0,0,.13,4.64q2.67,5,13-.57,12.44-6.66,16.84-16.94A25,25,0,0,0,416,164.59Z"/><path class="cls-2" d="M249.64,165.09c.1.19-.53,1.55-1.88,4.11q-5.76,8.94-18.7,16-6.48,3.52-19.4,7.46-18.78,5.76-26.57,10a50.42,50.42,0,0,0-23.6,28.59c-2.28,7.65,8,13.13,11.49,19.47,2.34,4.32-9.81,13.78-18.58,10.68-8.58-3.53-7.55-13.2-3.16-25.29q5.35-14.72,17.9-27.53a95.31,95.31,0,0,1,22.7-17.13A109.19,109.19,0,0,1,211,182.5q22.71-6.69,28.14-9.64a23.48,23.48,0,0,0,7.34-5.7,11.17,11.17,0,0,1,2.14-2.36A.67.67,0,0,1,249.64,165.09Zm-38.9,35.08a1.38,1.38,0,0,1-.08,1.42,31.76,31.76,0,0,0-3.63,11.9,101,101,0,0,0-.24,18.61q.71,10.92.7,22.55,0,21.41-6.73,35.5a66.08,66.08,0,0,1-13.83,18.64,83.86,83.86,0,0,1-18.69,14.1,39.47,39.47,0,0,1-14.51,4.8q-9.53,1.06-13-5.28a9.93,9.93,0,0,1-1.08-7,7.79,7.79,0,0,1,4.09-5.38,8,8,0,0,1,5.17-.88,5.25,5.25,0,0,1,4.07,2.75q1.05,2-.66,2.88l-.66.36q-2.91,1.58-1.4,4.36,2,3.69,7.91,3.22a20.12,20.12,0,0,0,8.73-2.52q10.57-5.75,14.72-14.16,4.92-9.86,6.49-24.92.88-7.5,1.26-26,.49-21.13,7.43-36.73a52.51,52.51,0,0,1,12.45-17.72,2.65,2.65,0,0,1,.91-.83C210.37,199.69,210.55,199.82,210.74,200.17Z"/></g></g></svg>